<svg width="128" height="128" viewBox="0 0 128 128" fill="none" xmlns="http://www.w3.org/2000/svg">
<g clip-path="url(#clip0)">
<path d="M127.447 3.85863C127.254 2.11546 125.878 0.738509 124.134 0.54515C94.4581 -2.75075 69.1612 9.12034 48.5264 30.3616C42.6211 36.4407 37.4991 42.8752 33.127 49.0852C25.7276 48.7844 17.5235 52.1321 11.7071 57.9485L1.09966 68.5559C-0.100539 69.7561 -0.344679 71.6135 0.503954 73.0832C1.35259 74.553 3.08208 75.2688 4.7227 74.8303C7.18364 74.1692 11.1827 73.4006 15.0245 73.2219C16.4288 73.1565 17.5958 73.177 18.5655 73.2512C16.2247 77.7532 14.4307 81.5246 13.836 82.469C12.9043 83.9514 13.1202 85.8801 14.3584 87.1184L20.4961 93.2561C11.5635 105.439 11.4161 111.678 11.4473 112.562C11.5127 114.434 12.9727 116.188 15.3907 116.188C17.4844 116.188 23.4893 115.299 34.4209 107.181L40.877 113.637C42.1241 114.884 44.0723 115.093 45.5567 114.14C46.5665 113.49 50.1163 111.772 54.3731 109.547C54.4434 112.72 54.0127 117.379 53.0782 123.695C52.5469 127.277 56.9014 129.433 59.4395 126.896L70.0469 116.288C75.5167 110.819 78.6885 102.695 78.4542 95.0735C84.9961 90.5022 91.8018 85.1096 98.1563 78.8782C119.195 58.2463 130.701 33.1409 127.447 3.85863V3.85863ZM120.273 7.718C120.872 15.8039 120.233 23.6418 118.373 31.2268C113.753 29.7717 109.236 26.9133 105.157 22.8352C101.064 18.7405 98.1993 14.2053 96.7501 9.56859C104.332 7.73558 112.175 7.11449 120.273 7.718ZM14.5352 65.7278L17.0098 63.2522C20.003 60.26 23.8956 58.1047 27.7667 57.136C25.7442 60.3459 23.9415 63.4114 22.3516 66.2405C19.8956 65.6985 17.1651 65.5979 14.5352 65.7278ZM21.6319 83.7854C22.4434 82.1838 23.4249 80.176 25.2266 76.7717L30.1631 81.7092C28.3262 83.6799 26.668 85.552 25.1739 87.3264L21.6319 83.7854ZM39.9708 82.3508C42.7032 79.6194 45.3233 79.1203 48.5782 79.05C48.5069 82.2219 47.9981 84.9309 45.2745 87.6545C33.6319 99.2971 25.6514 104.496 20.879 106.817C23.2334 101.952 28.4463 93.8752 39.9708 82.3508V82.3508ZM44.1885 106.342L40.3213 102.474C42.087 100.974 43.9532 99.3108 45.9219 97.467L51.1768 102.722C47.7217 104.567 46.2803 105.261 44.1885 106.342ZM64.7422 110.985L61.7403 113.988C61.9835 110.35 61.8995 107.699 61.5557 105.655C64.3135 104.102 67.3086 102.341 70.4473 100.371C69.5528 104.336 67.542 108.186 64.7422 110.985ZM58.004 98.9426L51.2803 92.218C56.2559 86.7434 56.0704 81.468 56.0704 75.3049C56.0704 73.2336 54.3917 71.5549 52.3204 71.5549C46.5626 71.5549 41.0215 71.2463 35.4073 76.3459L28.9864 69.925C46.5196 39.1799 66.7862 19.7151 89.5567 11.6994C91.3594 17.5325 94.8682 23.1526 99.8545 28.1389C104.817 33.1028 110.411 36.6028 116.219 38.4123C108.156 61.0578 88.6963 81.3118 58.004 98.9426Z" fill="#87B7FF"/>
<path d="M94.5498 33.4414C87.2383 26.1309 75.3418 26.1309 68.0312 33.4414C60.7207 40.7529 60.7207 52.6494 68.0312 59.96C75.3418 67.2705 87.2383 67.2715 94.5498 59.96C101.86 52.6494 101.86 40.7529 94.5498 33.4414V33.4414ZM89.2461 54.6562C84.8594 59.043 77.7207 59.043 73.335 54.6562C68.9482 50.2695 68.9482 43.1318 73.335 38.7451C77.7207 34.3594 84.8584 34.3584 89.2461 38.7451C93.6328 43.1318 93.6328 50.2695 89.2461 54.6562Z" fill="#87B7FF"/>
</g>
<defs>
<clipPath id="clip0">
<rect width="128" height="128" fill="white"/>
</clipPath>
</defs>
</svg>
